<?xml version="1.0" standalone="no"?>
<!DOCTYPE svg PUBLIC "-//W3C//DTD SVG 20010904//EN"
 "http://www.w3.org/TR/2001/REC-SVG-20010904/DTD/svg10.dtd">
<svg version="1.0" xmlns="http://www.w3.org/2000/svg"
 width="1024.000000pt" height="1024.000000pt" viewBox="0 0 1024.000000 1024.000000"
 preserveAspectRatio="xMidYMid meet">
<metadata>
Created by potrace 1.11, written by Peter Selinger 2001-2013
</metadata>
<g transform="translate(0.000000,1024.000000) scale(0.100000,-0.100000)"
fill="#000000" stroke="none">
<path d="M2105 9353 c-179 -38 -210 -95 -221 -418 -12 -333 33 -588 141 -807
47 -95 117 -184 176 -223 42 -27 41 -25 -26 47 -114 123 -165 222 -216 424
-44 174 -62 320 -63 499 -1 285 35 367 184 420 25 9 91 19 148 22 70 4 102 10
102 18 0 7 10 17 23 23 35 17 -164 13 -248 -5z"/>
<path d="M2536 9321 c-16 -18 -15 -19 34 -25 102 -14 295 -77 415 -135 187
-92 289 -199 303 -316 10 -94 -69 -205 -362 -503 -166 -169 -268 -264 -431
-400 l-40 -34 49 34 c102 69 247 198 427 377 264 265 389 430 389 514 0 136
-221 320 -515 430 -55 21 -238 77 -250 77 -1 0 -10 -8 -19 -19z"/>
<path d="M7660 9320 c-289 -61 -524 -204 -601 -365 -16 -33 -29 -71 -29 -85 0
-19 10 -7 38 46 21 39 53 90 71 113 47 59 147 127 246 167 92 37 285 88 379
99 57 7 57 8 37 26 -24 23 -32 23 -141 -1z"/>
<path d="M8028 9333 c12 -2 32 -2 45 0 12 2 2 4 -23 4 -25 0 -35 -2 -22 -4z"/>
<path d="M8335 9215 c100 -167 112 -502 29 -793 -33 -116 -100 -254 -158 -325
l-47 -58 76 62 c86 69 100 94 134 230 43 173 71 445 71 670 -1 159 -21 209
-102 250 l-36 19 33 -55z"/>
<path d="M7021 8824 c0 -11 3 -14 6 -6 3 7 2 16 -1 19 -3 4 -6 -2 -5 -13z"/>
<path d="M7179 8505 c22 -27 57 -68 77 -90 l36 -40 -32 42 c-17 23 -52 64 -77
90 l-45 48 41 -50z"/>
<path d="M7525 8144 c118 -107 162 -138 70 -50 -55 52 -104 95 -110 95 -5 0
13 -20 40 -45z"/>
<path d="M8091 7990 c-25 -21 -74 -56 -110 -77 l-65 -38 39 -3 c47 -4 111 13
144 37 20 15 22 20 11 38 -11 17 -10 25 9 52 12 17 21 31 19 31 -2 -1 -23 -18
-47 -40z"/>
<path d="M6380 7840 c-102 -10 -230 -39 -326 -75 -143 -54 -323 -167 -373
-236 -23 -31 -21 -30 27 11 221 191 565 305 866 287 378 -22 691 -181 934
-474 127 -153 128 -154 101 -113 -91 140 -243 301 -359 380 -229 155 -586 246
-870 220z"/>
<path d="M3693 7833 c42 -2 112 -2 155 0 42 1 7 3 -78 3 -85 0 -120 -2 -77 -3z"/>
<path d="M3558 7823 c7 -3 16 -2 19 1 4 3 -2 6 -13 5 -11 0 -14 -3 -6 -6z"/>
<path d="M3943 7823 c9 -2 23 -2 30 0 6 3 -1 5 -18 5 -16 0 -22 -2 -12 -5z"/>
<path d="M4008 7813 c6 -2 18 -2 25 0 6 3 1 5 -13 5 -14 0 -19 -2 -12 -5z"/>
<path d="M4058 7803 c7 -3 16 -2 19 1 4 3 -2 6 -13 5 -11 0 -14 -3 -6 -6z"/>
<path d="M4655 7470 c33 -33 62 -60 64 -60 3 0 -21 27 -54 60 -33 33 -62 60
-64 60 -3 0 21 -27 54 -60z"/>
<path d="M4753 7360 c116 -149 216 -381 247 -570 18 -113 20 -114 15 -5 -5
114 -31 217 -77 308 -39 78 -134 220 -183 272 l-37 40 35 -45z"/>
<path d="M3709 7365 c-158 -40 -345 -164 -467 -309 -126 -151 -188 -374 -162
-581 24 -194 97 -342 235 -480 106 -106 173 -147 344 -212 169 -63 234 -65
401 -10 193 64 292 118 386 212 46 45 99 110 122 150 193 330 128 763 -154
1023 -83 77 -223 156 -339 192 -91 28 -284 36 -366 15z m423 -206 c119 -26
226 -107 271 -207 31 -70 29 -179 -5 -254 -14 -31 -38 -64 -52 -73 -65 -43
-162 -22 -285 59 -169 113 -254 268 -207 379 38 89 142 125 278 96z"/>
<path d="M6290 7354 c-83 -17 -199 -58 -275 -97 -199 -100 -300 -217 -349
-407 -23 -88 -32 -314 -17 -420 15 -99 62 -247 98 -310 151 -259 434 -400 728
-361 111 15 232 56 332 112 93 53 251 205 301 291 93 158 124 367 83 563 -64
310 -274 547 -551 624 -89 25 -248 27 -350 5z m400 -194 c205 -39 341 -217
301 -394 -42 -187 -290 -188 -475 -2 -73 74 -109 141 -114 217 -11 144 102
214 288 179z"/>
<path d="M5485 7318 c-49 -58 -149 -264 -179 -369 -36 -125 -51 -238 -38 -275
10 -29 10 -29 11 12 1 65 28 204 57 296 34 107 80 204 143 301 28 42 49 77 47
77 -3 0 -21 -19 -41 -42z"/>
<path d="M2687 7256 c-35 -32 -110 -192 -142 -301 -14 -48 -24 -90 -22 -92 2
-2 14 25 27 59 25 69 118 259 156 320 27 43 19 49 -19 14z"/>
<path d="M7724 7017 c33 -110 41 -191 41 -447 0 -238 -8 -349 -30 -427 -3 -10
4 2 15 27 19 40 56 148 75 220 7 24 7 24 -8 5 l-16 -20 -8 20 c-4 11 -8 90 -8
175 0 85 4 164 8 175 l8 20 15 -20 c15 -19 15 -18 8 10 -14 60 -67 211 -86
245 -10 19 -17 27 -14 17z"/>
<path d="M7843 6560 c0 -25 2 -35 4 -22 2 12 2 32 0 45 -2 12 -4 2 -4 -23z"/>
<path d="M5266 6455 c-9 -54 25 -227 70 -357 37 -106 129 -298 142 -298 4 0
37 -23 72 -52 47 -37 58 -43 42 -22 -169 219 -251 397 -296 645 -21 112 -24
120 -30 84z"/>
<path d="M2575 6090 c14 -48 73 -169 117 -237 122 -188 322 -358 523 -445 104
-45 113 -41 20 9 -112 60 -131 72 -231 149 -156 120 -305 299 -399 479 -20 39
-33 59 -30 45z"/>
<path d="M4876 5942 c-40 -82 -105 -177 -176 -257 l-62 -70 67 70 c37 39 84
95 105 125 40 60 104 180 98 186 -2 2 -17 -22 -32 -54z"/>
<path d="M8738 5894 c-11 -10 -9 -264 2 -289 7 -19 9 -18 19 8 23 59 4 307
-21 281z"/>
<path d="M7402 5651 c-88 -84 -199 -165 -297 -218 -82 -44 -61 -41 39 5 96 46
209 133 289 225 32 37 57 67 55 67 -1 -1 -40 -36 -86 -79z"/>
<path d="M5708 5588 c23 -43 31 -49 144 -108 116 -60 139 -65 43 -9 -38 22
-100 65 -137 95 -64 51 -66 52 -50 22z"/>
<path d="M4338 5430 c-9 -6 -72 -25 -141 -44 -131 -36 -269 -61 -427 -76 -90
-8 -87 -9 50 -5 161 4 280 22 385 58 70 24 179 76 160 76 -5 0 -18 -4 -27 -9z"/>
<path d="M4975 5295 c-210 -46 -345 -160 -345 -291 1 -67 28 -121 89 -176 61
-55 131 -90 225 -114 84 -21 125 -48 151 -99 17 -35 20 -60 20 -198 l0 -159
-32 -28 c-20 -18 -51 -32 -85 -39 -62 -12 -478 -20 -471 -8 2 4 -12 7 -33 7
-58 0 -237 28 -384 61 -362 80 -753 223 -1042 380 -139 77 -184 105 -360 232
-142 101 -271 177 -302 177 -79 0 283 -322 544 -485 212 -132 582 -297 880
-393 203 -66 512 -138 558 -130 9 1 22 0 27 -4 6 -3 76 -9 155 -13 178 -8 216
-17 237 -54 l16 -27 24 22 c43 39 104 49 313 49 171 0 200 -2 233 -19 41 -20
67 -59 68 -103 0 -28 0 -28 11 -5 7 13 17 21 25 18 7 -3 13 1 13 8 0 27 42 65
89 81 27 9 103 24 170 33 67 10 120 20 117 22 -2 3 28 6 68 7 39 0 127 13 196
27 497 101 1034 347 1395 637 65 52 399 394 365 374 -8 -5 -104 -76 -213 -157
-233 -173 -332 -237 -522 -333 -263 -133 -577 -250 -875 -324 -162 -41 -379
-81 -436 -81 -19 0 -34 -3 -34 -7 0 -11 -421 0 -440 10 -8 5 -6 1 5 -8 11 -8
50 -25 87 -36 38 -11 68 -24 68 -29 0 -12 -104 -24 -151 -16 -50 8 -107 36
-135 68 -50 55 -66 191 -40 349 25 149 45 162 56 36 6 -70 6 -71 14 -32 23
108 84 179 213 244 98 49 155 98 183 157 95 195 -181 386 -554 383 -55 0 -128
-7 -161 -14z m193 -32 c-10 -2 -28 -2 -40 0 -13 2 -5 4 17 4 22 1 32 -1 23 -4z
m-25 -520 c-7 -2 -19 -2 -25 0 -7 3 -2 5 12 5 14 0 19 -2 13 -5z m44 1 c-3 -3
-12 -4 -19 -1 -8 3 -5 6 6 6 11 1 17 -2 13 -5z m-1264 -561 c-7 -2 -19 -2 -25
0 -7 3 -2 5 12 5 14 0 19 -2 13 -5z m2560 0 c-7 -2 -19 -2 -25 0 -7 3 -2 5 12
5 14 0 19 -2 13 -5z m-1429 -23 c32 -12 34 -36 4 -44 -30 -8 -186 -8 -215 0
-31 9 -29 30 5 42 35 13 173 15 206 2z m23 -76 c-3 -3 -12 -4 -19 -1 -8 3 -5
6 6 6 11 1 17 -2 13 -5z m286 -1 c-7 -2 -19 -2 -25 0 -7 3 -2 5 12 5 14 0 19
-2 13 -5z m-370 -50 c-7 -2 -19 -2 -25 0 -7 3 -2 5 12 5 14 0 19 -2 13 -5z
m450 0 c-7 -2 -19 -2 -25 0 -7 3 -2 5 12 5 14 0 19 -2 13 -5z"/>
<path d="M4806 3835 c-12 -31 -6 -103 9 -119 21 -21 80 -36 140 -36 l50 1 -55
19 c-64 24 -106 62 -124 114 -10 29 -15 34 -20 21z"/>
<path d="M5461 3804 c0 -11 3 -14 6 -6 3 7 2 16 -1 19 -3 4 -6 -2 -5 -13z"/>
<path d="M5440 3735 c-7 -13 -27 -31 -44 -39 -26 -13 -27 -16 -10 -16 12 0 36
3 53 6 26 5 31 11 31 35 0 37 -14 44 -30 14z"/>
<path d="M6750 3723 c-120 -8 -256 -26 -365 -48 -172 -34 -343 -62 -467 -76
-59 -7 -105 -16 -102 -21 3 -4 20 -8 39 -8 19 0 44 -4 57 -9 36 -14 245 19
543 84 215 47 370 69 410 59 14 -3 33 -3 42 1 16 7 15 9 -7 15 -26 8 -70 9
-150 3z"/>
<path d="M3870 3640 c156 -34 437 -79 495 -80 22 -1 65 3 95 8 44 7 50 10 30
15 -42 10 -703 88 -740 86 -8 0 46 -13 120 -29z"/>
<path d="M4553 3573 c9 -2 25 -2 35 0 9 3 1 5 -18 5 -19 0 -27 -2 -17 -5z"/>
<path d="M5638 3573 c-67 -4 -67 -4 -48 -23 24 -24 68 -26 84 -4 7 9 36 19 66
24 54 7 54 7 10 7 -25 -1 -75 -2 -112 -4z"/>
<path d="M4638 3560 c12 -5 22 -14 22 -20 0 -15 56 -12 69 4 15 18 -6 26 -67
25 -38 0 -43 -2 -24 -9z"/>
<path d="M4936 3536 c7 -17 91 -26 250 -26 132 0 156 4 147 26 -4 11 -42 14
-204 14 -163 0 -197 -2 -193 -14z"/>
<path d="M7479 1850 c-119 -63 -204 -273 -151 -376 23 -45 87 -107 147 -144
22 -13 43 -28 46 -32 3 -5 28 -11 56 -15 62 -7 109 17 144 74 27 44 77 67 114
53 38 -15 45 -6 45 58 0 159 -90 325 -205 378 -63 30 -145 31 -196 4z"/>
<path d="M3421 1432 l-1 -153 23 12 c12 7 78 42 147 79 69 37 146 75 173 85
26 10 46 19 44 21 -5 6 -158 -34 -232 -60 -98 -34 -119 -20 -140 96 l-13 73
-1 -153z"/>
<path d="M4410 1504 c178 -38 365 -128 515 -249 l60 -48 -40 42 c-60 63 -179
151 -272 199 -87 45 -196 73 -281 71 l-47 -1 65 -14z"/>
<path d="M5620 1428 c-154 -68 -194 -90 -175 -98 13 -5 29 -1 45 11 14 9 59
36 100 58 70 38 86 53 30 29z"/>
<path d="M3960 1385 c-52 -14 -140 -47 -195 -74 -94 -46 -242 -146 -274 -184
-22 -27 -2 -20 35 12 83 73 256 153 414 192 82 20 120 23 270 23 157 -1 185
-4 274 -27 128 -34 264 -101 346 -170 36 -30 119 -120 185 -200 l119 -145 191
185 c104 102 191 190 193 194 2 5 -8 14 -22 20 -23 11 -30 7 -80 -37 -30 -27
-103 -107 -162 -178 l-107 -129 -161 165 c-89 92 -179 179 -201 196 -104 77
-240 140 -364 168 -68 15 -70 15 -90 -5 -18 -18 -33 -21 -101 -21 -67 0 -83 3
-100 20 -26 26 -53 25 -170 -5z"/>
<path d="M5916 1399 c-100 -15 -207 -48 -303 -95 -90 -43 -92 -45 -81 -69 6
-13 14 -23 17 -21 3 3 36 24 72 49 87 58 169 85 300 99 102 11 105 12 87 30
-10 10 -21 17 -25 17 -5 -1 -35 -5 -67 -10z"/>
<path d="M5040 1155 c13 -14 26 -25 28 -25 3 0 -5 11 -18 25 -13 14 -26 25
-28 25 -3 0 5 -11 18 -25z"/>
<path d="M5221 1123 c-63 -34 -66 -34 -98 -19 -42 20 -43 12 0 -14 49 -30 73
-25 125 25 26 24 45 44 42 44 -3 -1 -34 -17 -69 -36z"/>
<path d="M2682 750 c-176 -20 -123 -38 113 -39 180 -1 236 8 184 27 -37 15
-213 22 -297 12z"/>
<path d="M7464 750 c-39 -4 -82 -11 -95 -16 l-24 -8 25 -7 c14 -4 106 -7 205
-8 179 -1 236 8 184 27 -37 15 -213 22 -295 12z"/>
</g>
</svg>
